<svg width="56" height="56" viewBox="0 0 56 56" fill="none" xmlns="http://www.w3.org/2000/svg">
<rect x="4" y="4" width="48" height="48" rx="24" fill="#D1FADF"/>
<path d="M38.5 37C38.5 37 40 37 40 35.5C40 34 38.5 29.5 32.5 29.5C26.5 29.5 25 34 25 35.5C25 37 26.5 37 26.5 37H38.5ZM26.533 35.5C26.5219 35.4985 26.5109 35.4965 26.5 35.494C26.5015 35.098 26.7505 33.949 27.64 32.914C28.468 31.9435 29.923 31 32.5 31C35.0755 31 36.5305 31.945 37.36 32.914C38.2495 33.949 38.497 35.0995 38.5 35.494L38.488 35.497C38.481 35.4982 38.474 35.4992 38.467 35.5H26.533ZM32.5 26.5C33.2956 26.5 34.0587 26.1839 34.6213 25.6213C35.1839 25.0587 35.5 24.2956 35.5 23.5C35.5 22.7044 35.1839 21.9413 34.6213 21.3787C34.0587 20.8161 33.2956 20.5 32.5 20.5C31.7044 20.5 30.9413 20.8161 30.3787 21.3787C29.8161 21.9413 29.5 22.7044 29.5 23.5C29.5 24.2956 29.8161 25.0587 30.3787 25.6213C30.9413 26.1839 31.7044 26.5 32.5 26.5ZM37 23.5C37 24.0909 36.8836 24.6761 36.6575 25.2221C36.4313 25.768 36.0998 26.2641 35.682 26.682C35.2641 27.0998 34.768 27.4313 34.2221 27.6575C33.6761 27.8836 33.0909 28 32.5 28C31.9091 28 31.3239 27.8836 30.7779 27.6575C30.232 27.4313 29.7359 27.0998 29.318 26.682C28.9002 26.2641 28.5687 25.768 28.3425 25.2221C28.1164 24.6761 28 24.0909 28 23.5C28 22.3065 28.4741 21.1619 29.318 20.318C30.1619 19.4741 31.3065 19 32.5 19C33.6935 19 34.8381 19.4741 35.682 20.318C36.5259 21.1619 37 22.3065 37 23.5ZM26.404 29.92C25.804 29.7311 25.1855 29.6069 24.559 29.5495C24.207 29.516 23.8536 29.4995 23.5 29.5C17.5 29.5 16 34 16 35.5C16 36.5005 16.4995 37 17.5 37H23.824C23.6016 36.5317 23.4907 36.0183 23.5 35.5C23.5 33.985 24.0655 32.437 25.135 31.144C25.4995 30.703 25.924 30.2905 26.404 29.92ZM23.38 31C22.4922 32.3339 22.0127 33.8977 22 35.5H17.5C17.5 35.11 17.746 33.955 18.64 32.914C19.4575 31.96 20.878 31.03 23.38 31.0015V31ZM18.25 24.25C18.25 23.0565 18.7241 21.9119 19.568 21.068C20.4119 20.2241 21.5565 19.75 22.75 19.75C23.9435 19.75 25.0881 20.2241 25.932 21.068C26.7759 21.9119 27.25 23.0565 27.25 24.25C27.25 25.4435 26.7759 26.5881 25.932 27.432C25.0881 28.2759 23.9435 28.75 22.75 28.75C21.5565 28.75 20.4119 28.2759 19.568 27.432C18.7241 26.5881 18.25 25.4435 18.25 24.25ZM22.75 21.25C21.9544 21.25 21.1913 21.5661 20.6287 22.1287C20.0661 22.6913 19.75 23.4544 19.75 24.25C19.75 25.0456 20.0661 25.8087 20.6287 26.3713C21.1913 26.9339 21.9544 27.25 22.75 27.25C23.5456 27.25 24.3087 26.9339 24.8713 26.3713C25.4339 25.8087 25.75 25.0456 25.75 24.25C25.75 23.4544 25.4339 22.6913 24.8713 22.1287C24.3087 21.5661 23.5456 21.25 22.75 21.25Z" fill="#14521A"/>
<rect x="4" y="4" width="48" height="48" rx="24" stroke="#ECFDF3" stroke-width="8"/>
</svg>
