<svg width="56" height="56" viewBox="0 0 56 56" fill="none" xmlns="http://www.w3.org/2000/svg">
<rect x="4" y="4" width="48" height="48" rx="24" fill="#F4EBFF"/>
<path d="M29.744 18.6339L37.272 23.5272C37.538 23.7001 37.671 23.7865 37.7674 23.9018C37.8527 24.0039 37.9167 24.122 37.9558 24.2491C38 24.3928 38 24.5514 38 24.8687V32.2004C38 33.8805 38 34.7206 37.673 35.3623C37.3854 35.9268 36.9265 36.3858 36.362 36.6734C35.7202 37.0004 34.8802 37.0004 33.2 37.0004H22.8C21.1198 37.0004 20.2798 37.0004 19.638 36.6734C19.0735 36.3858 18.6146 35.9268 18.327 35.3623C18 34.7206 18 33.8805 18 32.2004V24.8687C18 24.5514 18 24.3928 18.0442 24.2491C18.0833 24.122 18.1473 24.0039 18.2326 23.9018C18.329 23.7865 18.462 23.7001 18.728 23.5272L26.256 18.6339M29.744 18.6339C29.1127 18.2236 28.7971 18.0185 28.457 17.9387C28.1564 17.8681 27.8436 17.8681 27.543 17.9387C27.2029 18.0185 26.8873 18.2236 26.256 18.6339M29.744 18.6339L35.9361 22.6589C36.624 23.106 36.9679 23.3295 37.087 23.613C37.1911 23.8608 37.1911 24.14 37.087 24.3877C36.9679 24.6712 36.624 24.8948 35.9361 25.3419L29.744 29.3668C29.1127 29.7771 28.7971 29.9823 28.457 30.0621C28.1564 30.1326 27.8436 30.1326 27.543 30.0621C27.2029 29.9823 26.8873 29.7771 26.256 29.3668L20.0639 25.3419C19.376 24.8948 19.0321 24.6712 18.913 24.3877C18.8089 24.14 18.8089 23.8608 18.913 23.613C19.0321 23.3295 19.376 23.106 20.0639 22.6589L26.256 18.6339M37.5 35.0004L30.8572 29.0004M25.1428 29.0004L18.5 35.0004" stroke="black" stroke-width="2" stroke-linecap="round" stroke-linejoin="round"/>
<rect x="4" y="4" width="48" height="48" rx="24" stroke="#F9F5FF" stroke-width="8"/>
</svg>
