<svg width="56" height="56" viewBox="0 0 56 56" fill="none" xmlns="http://www.w3.org/2000/svg">
<rect x="4" y="4" width="48" height="48" rx="24" fill="#FEE4E2"/>
<path d="M33.5556 24.6666C33.5555 24.0979 33.3386 23.5292 32.9047 23.0953C32.4708 22.6614 31.9021 22.4444 31.3333 22.4444M31.3333 31.3333C35.0152 31.3333 38 28.3486 38 24.6667C38 20.9848 35.0152 18 31.3333 18C27.6514 18 24.6667 20.9848 24.6667 24.6667C24.6667 24.9708 24.687 25.2701 24.7265 25.5634C24.7913 26.0458 24.8237 26.2869 24.8019 26.4395C24.7792 26.5985 24.7502 26.6842 24.6719 26.8243C24.5967 26.9589 24.4641 27.0914 24.199 27.3565L18.5207 33.0349C18.3285 33.227 18.2324 33.3231 18.1637 33.4352C18.1028 33.5347 18.0579 33.643 18.0307 33.7564C18 33.8843 18 34.0202 18 34.2919V36.2222C18 36.8445 18 37.1556 18.1211 37.3933C18.2276 37.6024 18.3976 37.7724 18.6067 37.8789C18.8444 38 19.1555 38 19.7778 38H22.4444V35.7778H24.6667V33.5556H26.8889L28.6435 31.801C28.9086 31.5359 29.0411 31.4033 29.1757 31.3281C29.3158 31.2498 29.4015 31.2208 29.5605 31.1981C29.7131 31.1763 29.9542 31.2087 30.4366 31.2735C30.7299 31.313 31.0292 31.3333 31.3333 31.3333Z" stroke="#782828" stroke-width="2" stroke-linecap="round" stroke-linejoin="round"/>
<rect x="4" y="4" width="48" height="48" rx="24" stroke="#FEF3F2" stroke-width="8"/>
</svg>
