<svg width="56" height="56" viewBox="0 0 56 56" fill="none" xmlns="http://www.w3.org/2000/svg">
<rect x="4" y="4" width="48" height="48" rx="24" fill="#FEF0C7"/>
<path d="M33 24.9999C33 24.4881 32.8047 23.9763 32.4142 23.5858C32.0237 23.1953 31.5118 23 31 23M31 31C34.3137 31 37 28.3137 37 25C37 21.6863 34.3137 19 31 19C27.6863 19 25 21.6863 25 25C25 25.2737 25.0183 25.5431 25.0538 25.807C25.1122 26.2412 25.1414 26.4583 25.1217 26.5956C25.1013 26.7387 25.0752 26.8157 25.0047 26.9419C24.937 27.063 24.8177 27.1823 24.5791 27.4209L19.4686 32.5314C19.2957 32.7043 19.2092 32.7908 19.1474 32.8917C19.0925 32.9812 19.0521 33.0787 19.0276 33.1808C19 33.2959 19 33.4182 19 33.6627V35.4C19 35.9601 19 36.2401 19.109 36.454C19.2049 36.6422 19.3578 36.7951 19.546 36.891C19.7599 37 20.0399 37 20.6 37H23V35H25V33H27L28.5791 31.4209C28.8177 31.1823 28.937 31.063 29.0581 30.9953C29.1843 30.9248 29.2613 30.8987 29.4044 30.8783C29.5417 30.8586 29.7588 30.8878 30.193 30.9462C30.4569 30.9817 30.7263 31 31 31Z" stroke="#706C13" stroke-width="2" stroke-linecap="round" stroke-linejoin="round"/>
<rect x="4" y="4" width="48" height="48" rx="24" stroke="#FFFAEB" stroke-width="8"/>
</svg>
