<svg width="56" height="56" viewBox="0 0 56 56" fill="none" xmlns="http://www.w3.org/2000/svg">
<rect x="4" y="4" width="48" height="48" rx="24" fill="#FEE4E2"/>
<path d="M26.5 38C26.5 38 25 38 25 36.6667C25 35.3333 26.5 31.3333 32.5 31.3333C38.5 31.3333 40 35.3333 40 36.6667C40 38 38.5 38 38.5 38H26.5ZM32.5 30C33.6935 30 34.8381 29.5786 35.682 28.8284C36.5259 28.0783 37 27.0609 37 26C37 24.9391 36.5259 23.9217 35.682 23.1716C34.8381 22.4214 33.6935 22 32.5 22C31.3065 22 30.1619 22.4214 29.318 23.1716C28.4741 23.9217 28 24.9391 28 26C28 27.0609 28.4741 28.0783 29.318 28.8284C30.1619 29.5786 31.3065 30 32.5 30ZM23.824 38C23.6016 37.5838 23.4907 37.1274 23.5 36.6667C23.5 34.86 24.52 33 26.404 31.7067C25.4636 31.4491 24.4839 31.3232 23.5 31.3333C17.5 31.3333 16 35.3333 16 36.6667C16 38 17.5 38 17.5 38H23.824ZM22.75 30C23.7446 30 24.6984 29.6488 25.4017 29.0237C26.1049 28.3986 26.5 27.5507 26.5 26.6667C26.5 25.7826 26.1049 24.9348 25.4017 24.3096C24.6984 23.6845 23.7446 23.3333 22.75 23.3333C21.7554 23.3333 20.8016 23.6845 20.0983 24.3096C19.3951 24.9348 19 25.7826 19 26.6667C19 27.5507 19.3951 28.3986 20.0983 29.0237C20.8016 29.6488 21.7554 30 22.75 30Z" fill="#782828"/>
<rect x="4" y="4" width="48" height="48" rx="24" stroke="#FEF3F2" stroke-width="8"/>
</svg>
