<svg width="56" height="56" viewBox="0 0 56 56" fill="none" xmlns="http://www.w3.org/2000/svg">
<rect x="4" y="4" width="48" height="48" rx="24" fill="#FEF0C7"/>
<path d="M26.5 36C26.5 36 25 36 25 34.6667C25 33.3333 26.5 29.3333 32.5 29.3333C38.5 29.3333 40 33.3333 40 34.6667C40 36 38.5 36 38.5 36H26.5ZM32.5 28C33.6935 28 34.8381 27.5786 35.682 26.8284C36.5259 26.0783 37 25.0609 37 24C37 22.9391 36.5259 21.9217 35.682 21.1716C34.8381 20.4214 33.6935 20 32.5 20C31.3065 20 30.1619 20.4214 29.318 21.1716C28.4741 21.9217 28 22.9391 28 24C28 25.0609 28.4741 26.0783 29.318 26.8284C30.1619 27.5786 31.3065 28 32.5 28ZM23.824 36C23.6016 35.5838 23.4907 35.1274 23.5 34.6667C23.5 32.86 24.52 31 26.404 29.7067C25.4636 29.4491 24.4839 29.3232 23.5 29.3333C17.5 29.3333 16 33.3333 16 34.6667C16 36 17.5 36 17.5 36H23.824ZM22.75 28C23.7446 28 24.6984 27.6488 25.4017 27.0237C26.1049 26.3986 26.5 25.5507 26.5 24.6667C26.5 23.7826 26.1049 22.9348 25.4017 22.3096C24.6984 21.6845 23.7446 21.3333 22.75 21.3333C21.7554 21.3333 20.8016 21.6845 20.0983 22.3096C19.3951 22.9348 19 23.7826 19 24.6667C19 25.5507 19.3951 26.3986 20.0983 27.0237C20.8016 27.6488 21.7554 28 22.75 28Z" fill="#706C13"/>
<rect x="4" y="4" width="48" height="48" rx="24" stroke="#FFFAEB" stroke-width="8"/>
</svg>
